<svg viewBox="0 0 20 20" xmlns="http://www.w3.org/2000/svg" xmlns:xlink="http://www.w3.org/1999/xlink" width="20.000000" height="20.000000" fill="none">
	<rect id="img09" width="20.000000" height="20.000000" x="0.000000" y="0.000000" />
	<rect id="ic_public_search-搜索/base/ic_public_search" width="20.000000" height="20.000000" x="0.000000" y="0.000000" fill="rgb(255,255,255)" fill-opacity="0" />
	<path id="path1" d="M-0.000101273 9.99172C-0.000101273 8.42922 -0.00426794 6.86672 -0.000101273 5.30423C-0.00426794 4.54589 0.0915654 3.79173 0.274899 3.06256C0.687399 1.51256 1.69573 0.591726 3.24573 0.233392C4.02073 0.0667257 4.81657 -0.0124409 5.60823 5.90582e-05C8.60406 5.90582e-05 11.5999 5.90582e-05 14.5999 5.90582e-05C15.3541 -0.00410761 16.1082 0.0792257 16.8457 0.258392C18.4416 0.645892 19.3999 1.65839 19.7624 3.25006C19.9291 4.00006 20.0041 4.76673 19.9957 5.53756C19.9957 8.56672 19.9957 11.5959 19.9957 14.6209C19.9999 15.3709 19.9166 16.1209 19.7416 16.8501C19.3499 18.4459 18.3332 19.3959 16.7457 19.7626C15.9666 19.9292 15.1749 20.0084 14.3791 19.9959C11.3957 19.9959 8.4124 19.9959 5.42907 19.9959C4.66657 20.0042 3.90823 19.9167 3.16657 19.7417C1.5624 19.3542 0.599899 18.3376 0.237399 16.7376C0.0498987 15.9251 -0.000101273 15.1126 -0.000101273 14.2917C-0.000101273 12.8584 -0.000101273 11.4251 -0.000101273 9.99172Z" fill="rgb(255,255,255)" fill-opacity="0" fill-rule="evenodd" />
	<circle id="path2" cx="10" cy="10" r="10" fill="rgb(255,255,255)" fill-opacity="0" />
	<path id="path3" d="M16.8497 13.296C17.4747 12.1127 17.8288 10.7627 17.8288 9.32933C17.8288 4.63766 14.0247 0.833496 9.32884 0.833496C4.63717 0.833496 0.833008 4.63766 0.833008 9.32933C0.833008 14.0252 4.63717 17.8293 9.32884 17.8293C11.6788 17.8293 13.808 16.8793 15.3455 15.3377L18.9538 18.9543" fill-rule="nonzero" stroke="rgb(255,255,255)" stroke-opacity="0" stroke-linecap="round" stroke-linejoin="round" stroke-width="1.250000" />
	<path id="path4" d="M16.8458 10.8666C16.7708 11.2249 16.6708 11.5791 16.5458 11.9291C16.4666 12.1458 16.5791 12.3833 16.7999 12.4583C17.0166 12.5374 17.2541 12.4291 17.3333 12.2083C17.4749 11.8166 17.5833 11.4166 17.6666 11.0083C17.7749 10.4624 17.8291 9.89994 17.8291 9.3291C17.8291 8.15827 17.6249 7.07077 17.2083 6.0666C16.7958 5.0666 16.1708 4.14994 15.3416 3.32077C14.5124 2.4916 13.5958 1.8666 12.5958 1.4541C11.5916 1.03743 10.5041 0.829102 9.3291 0.829102C8.15827 0.829102 7.07077 1.03743 6.0666 1.4541C5.0666 1.8666 4.14994 2.4916 3.32077 3.32077C2.4916 4.14994 1.8666 5.0666 1.4541 6.0666C1.03743 7.07077 0.829102 8.15827 0.829102 9.3291C0.829102 10.5041 1.03743 11.5916 1.4541 12.5958C1.8666 13.5958 2.4916 14.5124 3.32077 15.3416C4.14994 16.1708 5.0666 16.7916 6.0666 17.2083C7.07077 17.6249 8.15827 17.8291 9.3291 17.8291C10.5041 17.8291 11.5958 17.6249 12.5958 17.2083C13.4791 16.8416 14.2958 16.3166 15.0458 15.6249L18.3249 18.9083C18.4916 19.0749 18.7499 19.0749 18.9166 18.9083C19.0791 18.7458 19.0791 18.4833 18.9166 18.3208L15.3458 14.7499C15.2624 14.6666 15.1666 14.6249 15.0499 14.6249C14.9333 14.6249 14.8374 14.6666 14.7541 14.7499C14.0083 15.4999 13.1791 16.0624 12.2749 16.4374C11.3708 16.8083 10.3916 16.9958 9.3291 16.9958C8.27077 16.9958 7.2916 16.8124 6.38744 16.4374C5.48327 16.0624 4.65827 15.4999 3.90827 14.7541C3.16244 14.0041 2.59994 13.1791 2.22494 12.2749C1.84994 11.3708 1.66243 10.3916 1.66243 9.3291C1.66243 8.27077 1.84994 7.2916 2.22494 6.38744C2.59994 5.48327 3.16244 4.65827 3.90827 3.90827C4.65827 3.16244 5.48327 2.59994 6.38744 2.22494C7.2916 1.84994 8.27077 1.66244 9.3291 1.66244C10.3874 1.66244 11.3708 1.84994 12.2749 2.22494C13.1791 2.59994 14.0041 3.16244 14.7541 3.90827C15.4999 4.65827 16.0624 5.48327 16.4374 6.38744C16.8124 7.2916 16.9958 8.27077 16.9958 9.3291C16.9958 9.8541 16.9458 10.3624 16.8458 10.8666Z" fill="rgb(128,128,128)" fill-rule="evenodd" />
	<path id="path4" d="M16.7999 12.4583C17.0166 12.5374 17.2541 12.4291 17.3333 12.2083C17.4749 11.8166 17.5833 11.4166 17.6666 11.0083C17.7749 10.4624 17.8291 9.89994 17.8291 9.3291C17.8291 8.15827 17.6249 7.07077 17.2083 6.0666C16.7958 5.0666 16.1708 4.14994 15.3416 3.32077C14.5124 2.4916 13.5958 1.8666 12.5958 1.4541C11.5916 1.03743 10.5041 0.829102 9.3291 0.829102C8.15827 0.829102 7.07077 1.03743 6.0666 1.4541C5.0666 1.8666 4.14994 2.4916 3.32077 3.32077C2.4916 4.14994 1.8666 5.0666 1.4541 6.0666C1.03743 7.07077 0.829102 8.15827 0.829102 9.3291C0.829102 10.5041 1.03743 11.5916 1.4541 12.5958C1.8666 13.5958 2.4916 14.5124 3.32077 15.3416C4.14994 16.1708 5.0666 16.7916 6.0666 17.2083C7.07077 17.6249 8.15827 17.8291 9.3291 17.8291C10.5041 17.8291 11.5958 17.6249 12.5958 17.2083C13.4791 16.8416 14.2958 16.3166 15.0458 15.6249L18.3249 18.9083C18.4916 19.0749 18.7499 19.0749 18.9166 18.9083C19.0791 18.7458 19.0791 18.4833 18.9166 18.3208L15.3458 14.7499C15.2624 14.6666 15.1666 14.6249 15.0499 14.6249C14.9333 14.6249 14.8374 14.6666 14.7541 14.7499C14.0083 15.4999 13.1791 16.0624 12.2749 16.4374C11.3708 16.8083 10.3916 16.9958 9.3291 16.9958C8.27077 16.9958 7.2916 16.8124 6.38744 16.4374C5.48327 16.0624 4.65827 15.4999 3.90827 14.7541C3.16244 14.0041 2.59994 13.1791 2.22494 12.2749C1.84994 11.3708 1.66243 10.3916 1.66243 9.3291C1.66243 8.27077 1.84994 7.2916 2.22494 6.38744C2.59994 5.48327 3.16244 4.65827 3.90827 3.90827C4.65827 3.16244 5.48327 2.59994 6.38744 2.22494C7.2916 1.84994 8.27077 1.66244 9.3291 1.66244C10.3874 1.66244 11.3708 1.84994 12.2749 2.22494C13.1791 2.59994 14.0041 3.16244 14.7541 3.90827C15.4999 4.65827 16.0624 5.48327 16.4374 6.38744C16.8124 7.2916 16.9958 8.27077 16.9958 9.3291C16.9958 9.8541 16.9458 10.3624 16.8458 10.8666C16.7708 11.2249 16.6708 11.5791 16.5458 11.9291C16.4666 12.1458 16.5791 12.3833 16.7999 12.4583Z" fill-rule="nonzero" stroke="rgb(128,128,128)" stroke-width="1.250000" />
</svg>
