<svg viewBox="0 0 28 28" xmlns="http://www.w3.org/2000/svg" xmlns:xlink="http://www.w3.org/1999/xlink" width="28.000000" height="28.000000" fill="none" customFrame="#000000">
	<defs>
		<linearGradient id="paint_linear_55" x1="5.60156441" x2="19.3266983" y1="14.0000935" y2="13.1912117" gradientUnits="userSpaceOnUse">
			<stop stop-color="rgb(255,255,255)" offset="0" stop-opacity="0.858823538" />
			<stop stop-color="rgb(255,255,255)" offset="0.251694322" stop-opacity="0.800000012" />
			<stop stop-color="rgb(255,255,255)" offset="1" stop-opacity="1" />
		</linearGradient>
		<linearGradient id="paint_linear_56" x1="11.9364357" x2="10.4539137" y1="19.8667126" y2="14.6522951" gradientUnits="userSpaceOnUse">
			<stop stop-color="rgb(0,0,0)" offset="0" stop-opacity="0" />
			<stop stop-color="rgb(0,0,0)" offset="1" stop-opacity="1" />
		</linearGradient>
	</defs>
	<rect id="ico08 1" width="28.000000" height="28.000000" x="0.000000" y="0.000000" />
	<g id="ico08">
		<rect id="矩形备份 7" width="28.000000" height="28.000000" x="0.000000" y="0.000000" rx="6.000000" fill="rgb(20,118,255)" />
		<path id="路径备份 2" d="M20.3016 5.6001L20.3016 9.8001L14.0016 9.8001C11.682 9.8001 9.80156 11.6805 9.80156 14.0001C9.80156 16.3197 11.682 18.2001 14.0016 18.2001L20.3016 18.2001L20.3016 22.4001L14.0016 22.4001C9.36237 22.4001 5.60156 18.6393 5.60156 14.0001C5.60156 9.36091 9.36237 5.6001 14.0016 5.6001L20.3016 5.6001Z" fill="url(#paint_linear_55)" fill-rule="evenodd" />
		<g id="组合 36371" style="mix-blend-mode:soft-light">
			<path id="路径 42备份" d="M14.0014 9.80273C6.00591 9.80273 4.95865 16.9729 8.02082 19.88C11.083 22.7871 13.6582 22.3766 15.4328 22.4C17.2074 22.4234 16.6167 18.2022 14.0014 18.2022C11.3862 18.2022 9.78423 15.8662 9.78423 14C9.78423 12.1338 11.2875 9.80273 14.0014 9.80273Z" fill="url(#paint_linear_56)" fill-rule="evenodd" />
		</g>
	</g>
</svg>
