<svg viewBox="0 0 28 28" xmlns="http://www.w3.org/2000/svg" xmlns:xlink="http://www.w3.org/1999/xlink" width="28.000000" height="28.000000" fill="none" customFrame="#000000">
	<defs>
		<linearGradient id="paint_linear_36" x1="7" x2="15.2027979" y1="-2.99999666" y2="10.8801498" gradientUnits="userSpaceOnUse">
			<stop stop-color="rgb(255,255,255)" offset="0" stop-opacity="0.905882359" />
			<stop stop-color="rgb(255,255,255)" offset="0.293847859" stop-opacity="0.699999988" />
			<stop stop-color="rgb(255,255,255)" offset="1" stop-opacity="1" />
		</linearGradient>
	</defs>
	<rect id="ico01 1" width="28.000000" height="28.000000" x="0.000000" y="0.000000" />
	<g id="ico01">
		<rect id="矩形备份 5" width="28.000000" height="27.999996" x="0.000000" y="0.000000" rx="6.000000" fill="rgb(20,118,255)" />
		<path id="矩形备份 14" d="M17 0L17 7C17 10.3137 14.3137 13 11 13L6 13C2.68629 13 0 10.3137 0 7L0 6C0 2.68629 2.68629 0 6 0L17 0Z" fill="url(#paint_linear_36)" fill-rule="evenodd" transform="matrix(-1,0,0,-1,22.5,20.5)" />
		<path id="矩形备份 14" d="M17 0L17 7C17 10.3137 14.3137 13 11 13L6 13C2.68629 13 0 10.3137 0 7L0 6C0 2.68629 2.68629 0 6 0L17 0Z" fill="rgb(255,255,255)" fill-opacity="0" fill-rule="evenodd" transform="matrix(-1,0,0,-1,22.5,20.5)" />
		<rect id="矩形 873" width="2.000000" height="4.000000" x="10.500000" y="12.000000" rx="1.000000" fill="rgb(20,118,255)" />
		<rect id="矩形 874" width="2.000000" height="4.000000" x="16.000000" y="12.000000" rx="1.000000" fill="rgb(20,118,255)" />
	</g>
</svg>
