<svg viewBox="0 0 20 20" xmlns="http://www.w3.org/2000/svg" xmlns:xlink="http://www.w3.org/1999/xlink" width="20.000000" height="20.000000" fill="none" customFrame="#000000">
	<defs>
		<linearGradient id="paint_linear_3" x1="17.6479416" x2="4.18352413" y1="7.66959667" y2="8.77230453" gradientUnits="userSpaceOnUse">
			<stop stop-color="rgb(255,255,255)" offset="0" stop-opacity="0.905882359" />
			<stop stop-color="rgb(255,255,255)" offset="0.346602857" stop-opacity="0.699999988" />
			<stop stop-color="rgb(255,255,255)" offset="1" stop-opacity="1" />
		</linearGradient>
		<linearGradient id="paint_linear_4" x1="8.03577614" x2="5.70878029" y1="1.8109839" y2="6.23524189" gradientUnits="userSpaceOnUse">
			<stop stop-color="rgb(0,0,0)" offset="0" stop-opacity="0" />
			<stop stop-color="rgb(0,0,0)" offset="1" stop-opacity="1" />
		</linearGradient>
		<linearGradient id="paint_linear_5" x1="14.4604311" x2="12.6619072" y1="12.8419714" y2="16.4882145" gradientUnits="userSpaceOnUse">
			<stop stop-color="rgb(0,0,0)" offset="0" stop-opacity="0" />
			<stop stop-color="rgb(0,0,0)" offset="1" stop-opacity="1" />
		</linearGradient>
	</defs>
	<g id="编组 33">
		<rect id="矩形备份" width="20.000000" height="20.000000" x="0.000000" y="0.000000" rx="4.000000" fill="rgb(20,118,255)" />
		<path id="矢量 2510" d="M9.99338 16.3812C9.38852 16.3812 8.80416 16.3114 8.24024 16.1718C8.12867 16.1442 8.01796 16.1138 7.90809 16.0808C7.79667 16.0472 7.68605 16.0109 7.57632 15.9717C7.25272 15.8563 6.9446 15.7175 6.65192 15.5553C6.51595 15.4799 6.38333 15.3995 6.25406 15.314L6.25406 15.314L6.25325 15.3134C5.99901 15.1453 5.75774 14.9575 5.52942 14.7503C5.48273 14.7075 5.43683 14.6639 5.39175 14.6195L5.39113 14.6189L5.39108 14.6188C4.86352 14.0997 4.44195 13.473 4.12628 12.7386C3.78752 11.9435 3.61816 11.0304 3.61816 9.99945C3.61816 8.65297 3.90437 7.50308 4.47679 6.54988C4.80205 6.01113 5.19028 5.54447 5.64155 5.14981L5.64155 5.14981L5.6416 5.14981L5.6416 5.14976C5.7822 5.02681 5.92894 4.91081 6.08182 4.80184C6.30608 4.64198 6.54324 4.49736 6.79328 4.36804C6.95867 4.2823 7.12713 4.20393 7.29861 4.13287L7.29875 4.13282L7.29875 4.13278C7.42741 4.07947 7.55781 4.03028 7.68992 3.98523C8.40832 3.7402 9.17616 3.61768 9.99338 3.61768C11.7143 3.61768 13.0733 3.98679 14.0706 4.72503C14.2016 4.82139 14.3271 4.92299 14.4469 5.02984C14.5735 5.14263 14.6938 5.26118 14.8078 5.38554C15.0939 5.69767 15.3403 6.0462 15.5471 6.43109C15.6026 6.53444 15.6432 6.64129 15.6688 6.75158L15.6688 6.75167L15.6691 6.75262C15.6698 6.75597 15.6706 6.75937 15.6714 6.76272C15.6851 6.82452 15.694 6.88661 15.6982 6.94898L15.6982 6.94902C15.7015 6.99869 15.7016 7.04855 15.6988 7.0986C15.6972 7.12669 15.6947 7.15464 15.6912 7.18245C15.6812 7.26248 15.6632 7.34146 15.6375 7.41951C15.6345 7.42862 15.6314 7.43764 15.6282 7.44666L15.6282 7.4467C15.5957 7.53839 15.5529 7.62645 15.4998 7.71086C15.4954 7.71795 15.4908 7.72498 15.4863 7.73202L15.4846 7.73457L15.4846 7.73457C15.431 7.8162 15.3688 7.89226 15.2981 7.96265C15.281 7.97975 15.2635 7.99637 15.2456 8.01256L15.2456 8.01256C15.1828 8.06936 15.1151 8.12077 15.0426 8.16685C15.0086 8.18848 14.9739 8.20868 14.9384 8.22752C14.8753 8.261 14.8099 8.29008 14.7422 8.31477C14.7017 8.32955 14.6607 8.34263 14.6193 8.35401C14.5494 8.37318 14.4783 8.38748 14.4058 8.39693C14.3418 8.40528 14.2778 8.40963 14.2138 8.40996L14.2138 8.40996C14.0954 8.41052 13.9769 8.39735 13.8584 8.37044C13.6905 8.33234 13.5267 8.26761 13.3668 8.1762C13.2198 8.09216 13.0802 7.98787 12.9479 7.86336C12.8235 7.74637 12.71 7.61568 12.6074 7.47125C12.536 7.37083 12.4589 7.27565 12.3762 7.18566L12.3762 7.18561C12.3137 7.11762 12.2479 7.05261 12.1789 6.99057C12.1218 6.93925 12.062 6.88958 11.9995 6.84157C11.9849 6.83019 11.9701 6.81895 11.9552 6.80795L11.9547 6.80753L11.9546 6.80748C11.8954 6.76371 11.8342 6.72263 11.7709 6.68434C11.3324 6.41886 10.791 6.28407 10.1469 6.27991C9.38692 6.27009 8.75822 6.41608 8.26082 6.71791C8.15828 6.78 8.0612 6.84752 7.96961 6.92046C7.91432 6.96451 7.86097 7.01059 7.80951 7.05875L7.80951 7.0588C7.53831 7.31266 7.32071 7.6238 7.15664 7.99216C6.90268 8.55995 6.77567 9.22902 6.77567 9.99945C6.77567 10.7718 6.90239 11.4364 7.15584 11.9931C7.3055 12.3218 7.49993 12.6056 7.73916 12.8446C7.7927 12.8981 7.84851 12.9494 7.90658 12.9984C8.01663 13.0913 8.13481 13.1764 8.26111 13.2534C8.76063 13.5565 9.3923 13.713 10.1562 13.723C10.6727 13.7328 11.1365 13.6541 11.5477 13.4868C11.6445 13.4471 11.7375 13.4021 11.8268 13.3519C11.8773 13.3234 11.9267 13.2932 11.9749 13.2613L11.975 13.2612L11.9752 13.2611C12.1979 13.1136 12.6074 12.8036 12.6074 12.8036C12.6074 12.8036 12.967 12.5548 13.09 12.1373L12.2745 12.1373C12.1909 12.1373 12.1092 12.1286 12.0294 12.1111C11.9614 12.0962 11.8948 12.0749 11.8296 12.0473C11.7644 12.0198 11.7027 11.9868 11.6447 11.9484L11.6446 11.9484C11.5809 11.9063 11.5216 11.8577 11.4665 11.8026C11.4114 11.7475 11.3628 11.6881 11.3206 11.6244L11.3206 11.6244C11.2823 11.5663 11.2493 11.5046 11.2217 11.4394C11.1941 11.3742 11.1729 11.3076 11.158 11.2397C11.1405 11.1599 11.1317 11.0781 11.1317 10.9945C11.1317 10.9109 11.1405 10.8292 11.158 10.7493C11.1729 10.6814 11.1941 10.6148 11.2217 10.5496C11.2493 10.4844 11.2823 10.4227 11.3206 10.3646L11.3207 10.3646L11.3207 10.3646C11.3628 10.301 11.4114 10.2416 11.4665 10.1865C11.5216 10.1314 11.5809 10.0828 11.6446 10.0407L11.6447 10.0407C11.7027 10.0023 11.7644 9.96928 11.8296 9.94171C11.8948 9.91414 11.9614 9.89289 12.0293 9.87802L12.0294 9.87797L12.0294 9.87797C12.1092 9.8605 12.1909 9.85177 12.2745 9.85177L15.3737 9.85177C15.4607 9.85177 15.5452 9.86178 15.6274 9.88184L15.6274 9.88184C15.6711 9.89256 15.7143 9.90611 15.7567 9.92249C15.833 9.95205 15.9039 9.98954 15.9692 10.035L15.9692 10.035C16.0074 10.0616 16.0436 10.0909 16.078 10.123C16.3197 10.3646 16.1801 10.2293 16.2206 10.2896C16.2511 10.335 16.2775 10.383 16.3 10.4337C16.3202 10.4793 16.3367 10.526 16.3495 10.5737L16.3496 10.5742C16.371 10.6546 16.3817 10.7379 16.3817 10.824C16.3817 11.3914 16.3107 11.8769 16.078 12.4651C15.8453 13.0534 15.8144 13.1319 15.4998 13.6255C15.1852 14.1191 15.1507 14.1453 14.8816 14.4395L14.8815 14.4395C14.7595 14.5729 14.6308 14.7002 14.4954 14.8214C14.1576 15.1238 13.7787 15.3877 13.3588 15.6131C12.4044 16.1252 11.2826 16.3812 9.99338 16.3812Z" fill="url(#paint_linear_3)" fill-rule="evenodd" />
		<path id="矢量 2510" d="M9.99338 16.3812C9.38852 16.3812 8.80416 16.3114 8.24024 16.1718C8.12867 16.1442 8.01796 16.1138 7.90809 16.0808C7.79667 16.0472 7.68605 16.0109 7.57632 15.9717C7.25272 15.8563 6.9446 15.7175 6.65192 15.5553C6.51595 15.4799 6.38333 15.3995 6.25406 15.314L6.25406 15.314L6.25325 15.3134C5.99901 15.1453 5.75774 14.9575 5.52942 14.7503C5.48273 14.7075 5.43683 14.6639 5.39175 14.6195L5.39113 14.6189L5.39108 14.6188C4.86352 14.0997 4.44195 13.473 4.12628 12.7386C3.78752 11.9435 3.61816 11.0304 3.61816 9.99945C3.61816 8.65297 3.90437 7.50308 4.47679 6.54988C4.80205 6.01113 5.19028 5.54447 5.64155 5.14981L5.64155 5.14981L5.6416 5.14981L5.6416 5.14976C5.7822 5.02681 5.92894 4.91081 6.08182 4.80184C6.30608 4.64198 6.54324 4.49736 6.79328 4.36804C6.95867 4.2823 7.12713 4.20393 7.29861 4.13287L7.29875 4.13282L7.29875 4.13278C7.42741 4.07947 7.55781 4.03028 7.68992 3.98523C8.40832 3.7402 9.17616 3.61768 9.99338 3.61768C11.7143 3.61768 13.0733 3.98679 14.0706 4.72503C14.2016 4.82139 14.3271 4.92299 14.4469 5.02984C14.5735 5.14263 14.6938 5.26118 14.8078 5.38554C15.0939 5.69767 15.3403 6.0462 15.5471 6.43109C15.6026 6.53444 15.6432 6.64129 15.6688 6.75158L15.6688 6.75167L15.6691 6.75262C15.6698 6.75597 15.6706 6.75937 15.6714 6.76272C15.6851 6.82452 15.694 6.88661 15.6982 6.94898L15.6982 6.94902C15.7015 6.99869 15.7016 7.04855 15.6988 7.0986C15.6972 7.12669 15.6947 7.15464 15.6912 7.18245C15.6812 7.26248 15.6632 7.34146 15.6375 7.41951C15.6345 7.42862 15.6314 7.43764 15.6282 7.44666L15.6282 7.4467C15.5957 7.53839 15.5529 7.62645 15.4998 7.71086C15.4954 7.71795 15.4908 7.72498 15.4863 7.73202L15.4846 7.73457L15.4846 7.73457C15.431 7.8162 15.3688 7.89226 15.2981 7.96265C15.281 7.97975 15.2635 7.99637 15.2456 8.01256L15.2456 8.01256C15.1828 8.06936 15.1151 8.12077 15.0426 8.16685C15.0086 8.18848 14.9739 8.20868 14.9384 8.22752C14.8753 8.261 14.8099 8.29008 14.7422 8.31477C14.7017 8.32955 14.6607 8.34263 14.6193 8.35401C14.5494 8.37318 14.4783 8.38748 14.4058 8.39693C14.3418 8.40528 14.2778 8.40963 14.2138 8.40996L14.2138 8.40996C14.0954 8.41052 13.9769 8.39735 13.8584 8.37044C13.6905 8.33234 13.5267 8.26761 13.3668 8.1762C13.2198 8.09216 13.0802 7.98787 12.9479 7.86336C12.8235 7.74637 12.71 7.61568 12.6074 7.47125C12.536 7.37083 12.4589 7.27565 12.3762 7.18566L12.3762 7.18561C12.3137 7.11762 12.2479 7.05261 12.1789 6.99057C12.1218 6.93925 12.062 6.88958 11.9995 6.84157C11.9849 6.83019 11.9701 6.81895 11.9552 6.80795L11.9547 6.80753L11.9546 6.80748C11.8954 6.76371 11.8342 6.72263 11.7709 6.68434C11.3324 6.41886 10.791 6.28407 10.1469 6.27991C9.38692 6.27009 8.75822 6.41608 8.26082 6.71791C8.15828 6.78 8.0612 6.84752 7.96961 6.92046C7.91432 6.96451 7.86097 7.01059 7.80951 7.05875L7.80951 7.0588C7.53831 7.31266 7.32071 7.6238 7.15664 7.99216C6.90268 8.55995 6.77567 9.22902 6.77567 9.99945C6.77567 10.7718 6.90239 11.4364 7.15584 11.9931C7.3055 12.3218 7.49993 12.6056 7.73916 12.8446C7.7927 12.8981 7.84851 12.9494 7.90658 12.9984C8.01663 13.0913 8.13481 13.1764 8.26111 13.2534C8.76063 13.5565 9.3923 13.713 10.1562 13.723C10.6727 13.7328 11.1365 13.6541 11.5477 13.4868C11.6445 13.4471 11.7375 13.4021 11.8268 13.3519C11.8773 13.3234 11.9267 13.2932 11.9749 13.2613L11.975 13.2612L11.9752 13.2611C12.1979 13.1136 12.6074 12.8036 12.6074 12.8036C12.6074 12.8036 12.967 12.5548 13.09 12.1373L12.2745 12.1373C12.1909 12.1373 12.1092 12.1286 12.0294 12.1111C11.9614 12.0962 11.8948 12.0749 11.8296 12.0473C11.7644 12.0198 11.7027 11.9868 11.6447 11.9484L11.6446 11.9484C11.5809 11.9063 11.5216 11.8577 11.4665 11.8026C11.4114 11.7475 11.3628 11.6881 11.3206 11.6244L11.3206 11.6244C11.2823 11.5663 11.2493 11.5046 11.2217 11.4394C11.1941 11.3742 11.1729 11.3076 11.158 11.2397C11.1405 11.1599 11.1317 11.0781 11.1317 10.9945C11.1317 10.9109 11.1405 10.8292 11.158 10.7493C11.1729 10.6814 11.1941 10.6148 11.2217 10.5496C11.2493 10.4844 11.2823 10.4227 11.3206 10.3646L11.3207 10.3646L11.3207 10.3646C11.3628 10.301 11.4114 10.2416 11.4665 10.1865C11.5216 10.1314 11.5809 10.0828 11.6446 10.0407L11.6447 10.0407C11.7027 10.0023 11.7644 9.96928 11.8296 9.94171C11.8948 9.91414 11.9614 9.89289 12.0293 9.87802L12.0294 9.87797L12.0294 9.87797C12.1092 9.8605 12.1909 9.85177 12.2745 9.85177L15.3737 9.85177C15.4607 9.85177 15.5452 9.86178 15.6274 9.88184L15.6274 9.88184C15.6711 9.89256 15.7143 9.90611 15.7567 9.92249C15.833 9.95205 15.9039 9.98954 15.9692 10.035L15.9692 10.035C16.0074 10.0616 16.0436 10.0909 16.078 10.123C16.3197 10.3646 16.1801 10.2293 16.2206 10.2896C16.2511 10.335 16.2775 10.383 16.3 10.4337C16.3202 10.4793 16.3367 10.526 16.3495 10.5737L16.3496 10.5742C16.371 10.6546 16.3817 10.7379 16.3817 10.824C16.3817 11.3914 16.3107 11.8769 16.078 12.4651C15.8453 13.0534 15.8144 13.1319 15.4998 13.6255C15.1852 14.1191 15.1507 14.1453 14.8816 14.4395L14.8815 14.4395C14.7595 14.5729 14.6308 14.7002 14.4954 14.8214C14.1576 15.1238 13.7787 15.3877 13.3588 15.6131C12.4044 16.1252 11.2826 16.3812 9.99338 16.3812Z" fill="rgb(255,255,255)" fill-opacity="0" fill-rule="evenodd" />
		<g style="mix-blend-mode:soft-light">
			<path id="路径 42" d="M10.2012 1.64533C10.0561 2.45631 8.79912 3.78349 7.15531 4.43609C5.5263 5.0828 2.23554 5.13631 0.0590613 3.11396C0.257729 3.27941 1.00205 3.74998 2.94917 3.63845C5.30155 3.50371 6.57516 1.26949 7.59043 0.49593C8.06587 0.133688 8.5567 -0.122556 9.13755 0.0608285C9.79709 0.269056 10.3462 0.834353 10.2012 1.64533ZM0.0590613 3.11396C0.0392814 3.09558 0.0195938 3.07703 0 3.05831C0 3.05831 0.0177121 3.07953 0.0590613 3.11396Z" fill="url(#paint_linear_4)" fill-rule="evenodd" transform="matrix(1,0,0,-1,5.45508,8.4165)" />
		</g>
		<g style="mix-blend-mode:soft-light">
			<path id="路径 41" d="M7.58301 12.6584C8.30909 14.154 10.7738 15.8492 13.4329 15.0757C16.092 14.3022 16.3337 11.3896 16.3337 11.3896C16.3337 11.3896 13.2396 11.3529 13.0945 11.6914C12.9495 12.0299 12.9978 12.5617 11.8375 13.3353C11.336 13.6696 10.4356 13.8055 9.71025 13.722C8.50158 13.577 7.67304 12.8508 7.58301 12.6584Z" fill="url(#paint_linear_5)" fill-rule="evenodd" />
		</g>
	</g>
</svg>
